<?xml version="1.0" standalone="no"?>
<!DOCTYPE svg PUBLIC "-//W3C//DTD SVG 20010904//EN"
 "http://www.w3.org/TR/2001/REC-SVG-20010904/DTD/svg10.dtd">
<svg version="1.0" xmlns="http://www.w3.org/2000/svg"
 width="256.000000pt" height="256.000000pt" viewBox="0 0 256.000000 256.000000"
 preserveAspectRatio="xMidYMid meet">
<metadata>
Created by potrace 1.11, written by Peter Selinger 2001-2013
</metadata>
<g transform="translate(0.000000,256.000000) scale(0.100000,-0.100000)"
fill="#000000" stroke="none">
<path d="M0 1280 l0 -1280 1280 0 1280 0 0 1280 0 1280 -1280 0 -1280 0 0
-1280z m1640 35 l0 -745 -145 0 -145 0 0 745 0 745 145 0 145 0 0 -745z m450
-170 l0 -575 -145 0 -145 0 0 575 0 575 145 0 145 0 0 -575z m-1350 -95 l0
-480 -145 0 -145 0 0 480 0 480 145 0 145 0 0 -480z m450 -115 l0 -365 -145 0
-145 0 0 365 0 365 145 0 145 0 0 -365z"/>
</g>
</svg>
